<mxfile host="app.diagrams.net" modified="2022-03-03T04:15:28.674Z" agent="5.0 (Windows NT 10.0; Win64; x64) AppleWebKit/537.36 (KHTML, like Gecko) Chrome/98.0.4758.102 Safari/537.36" etag="j-jB3m0eaPYn2h9w9Oaj" version="16.6.4" type="github">
  <diagram id="3ISkXYWQOBibuc6nwS4l" name="Page-1">
    <mxGraphModel dx="1185" dy="655" grid="1" gridSize="10" guides="1" tooltips="1" connect="1" arrows="1" fold="1" page="1" pageScale="1" pageWidth="850" pageHeight="1100" math="0" shadow="0">
      <root>
        <mxCell id="0" />
        <mxCell id="1" parent="0" />
        <mxCell id="vZRIL2ey5NKBTlXbd4B_-1" value="SYR.CSE681.Client.GUI" style="shape=folder;fontStyle=1;spacingTop=10;tabWidth=40;tabHeight=14;tabPosition=left;html=1;" vertex="1" parent="1">
          <mxGeometry x="520" y="70" width="200" height="50" as="geometry" />
        </mxCell>
        <mxCell id="vZRIL2ey5NKBTlXbd4B_-2" value="SYR.CSE681.Client.UserAccount" style="shape=folder;fontStyle=1;spacingTop=10;tabWidth=40;tabHeight=14;tabPosition=left;html=1;" vertex="1" parent="1">
          <mxGeometry x="40" y="230" width="200" height="50" as="geometry" />
        </mxCell>
        <mxCell id="vZRIL2ey5NKBTlXbd4B_-3" value="SYR.CSE681.Client.Login" style="shape=folder;fontStyle=1;spacingTop=10;tabWidth=40;tabHeight=14;tabPosition=left;html=1;" vertex="1" parent="1">
          <mxGeometry x="280" y="230" width="200" height="50" as="geometry" />
        </mxCell>
        <mxCell id="vZRIL2ey5NKBTlXbd4B_-4" value="SYR.CSE681.Client.Server" style="shape=folder;fontStyle=1;spacingTop=10;tabWidth=40;tabHeight=14;tabPosition=left;html=1;" vertex="1" parent="1">
          <mxGeometry x="760" y="230" width="200" height="50" as="geometry" />
        </mxCell>
        <mxCell id="vZRIL2ey5NKBTlXbd4B_-5" value="SYR.CSE681.Client.ChatChannel" style="shape=folder;fontStyle=1;spacingTop=10;tabWidth=40;tabHeight=14;tabPosition=left;html=1;" vertex="1" parent="1">
          <mxGeometry x="1000" y="230" width="200" height="50" as="geometry" />
        </mxCell>
        <mxCell id="vZRIL2ey5NKBTlXbd4B_-6" value="" style="endArrow=none;html=1;rounded=0;edgeStyle=orthogonalEdgeStyle;strokeWidth=1;curved=1;exitX=0;exitY=0;exitDx=120;exitDy=14;exitPerimeter=0;entryX=0.5;entryY=1;entryDx=0;entryDy=0;entryPerimeter=0;" edge="1" parent="1" source="vZRIL2ey5NKBTlXbd4B_-2" target="vZRIL2ey5NKBTlXbd4B_-1">
          <mxGeometry width="50" height="50" relative="1" as="geometry">
            <mxPoint x="400" y="230" as="sourcePoint" />
            <mxPoint x="530" y="140" as="targetPoint" />
            <Array as="points">
              <mxPoint x="160" y="180" />
              <mxPoint x="620" y="180" />
            </Array>
          </mxGeometry>
        </mxCell>
        <mxCell id="vZRIL2ey5NKBTlXbd4B_-7" value="" style="endArrow=none;html=1;rounded=0;edgeStyle=orthogonalEdgeStyle;strokeWidth=1;curved=1;exitX=0;exitY=0;exitDx=120;exitDy=14;exitPerimeter=0;entryX=0.5;entryY=1;entryDx=0;entryDy=0;entryPerimeter=0;" edge="1" parent="1" source="vZRIL2ey5NKBTlXbd4B_-3" target="vZRIL2ey5NKBTlXbd4B_-1">
          <mxGeometry width="50" height="50" relative="1" as="geometry">
            <mxPoint x="150" y="240" as="sourcePoint" />
            <mxPoint x="570" y="130" as="targetPoint" />
            <Array as="points">
              <mxPoint x="400" y="180" />
              <mxPoint x="620" y="180" />
            </Array>
          </mxGeometry>
        </mxCell>
        <mxCell id="vZRIL2ey5NKBTlXbd4B_-8" value="" style="endArrow=none;html=1;rounded=0;edgeStyle=orthogonalEdgeStyle;strokeWidth=1;curved=1;exitX=0;exitY=0;exitDx=120;exitDy=14;exitPerimeter=0;entryX=0.5;entryY=1;entryDx=0;entryDy=0;entryPerimeter=0;" edge="1" parent="1" source="vZRIL2ey5NKBTlXbd4B_-5" target="vZRIL2ey5NKBTlXbd4B_-1">
          <mxGeometry width="50" height="50" relative="1" as="geometry">
            <mxPoint x="440" y="240" as="sourcePoint" />
            <mxPoint x="580" y="130" as="targetPoint" />
            <Array as="points">
              <mxPoint x="1120" y="180" />
              <mxPoint x="620" y="180" />
            </Array>
          </mxGeometry>
        </mxCell>
        <mxCell id="vZRIL2ey5NKBTlXbd4B_-9" value="" style="endArrow=none;html=1;rounded=0;edgeStyle=orthogonalEdgeStyle;strokeWidth=1;curved=1;exitX=0;exitY=0;exitDx=120;exitDy=14;exitPerimeter=0;entryX=0.5;entryY=1;entryDx=0;entryDy=0;entryPerimeter=0;" edge="1" parent="1" source="vZRIL2ey5NKBTlXbd4B_-4" target="vZRIL2ey5NKBTlXbd4B_-1">
          <mxGeometry width="50" height="50" relative="1" as="geometry">
            <mxPoint x="730" y="240" as="sourcePoint" />
            <mxPoint x="570" y="130" as="targetPoint" />
            <Array as="points">
              <mxPoint x="880" y="180" />
              <mxPoint x="620" y="180" />
            </Array>
          </mxGeometry>
        </mxCell>
        <mxCell id="vZRIL2ey5NKBTlXbd4B_-10" value="" style="endArrow=none;html=1;rounded=0;edgeStyle=orthogonalEdgeStyle;strokeWidth=1;curved=1;" edge="1" parent="1" source="vZRIL2ey5NKBTlXbd4B_-3" target="vZRIL2ey5NKBTlXbd4B_-2">
          <mxGeometry width="50" height="50" relative="1" as="geometry">
            <mxPoint x="740" y="250" as="sourcePoint" />
            <mxPoint x="580" y="140" as="targetPoint" />
            <Array as="points">
              <mxPoint x="280" y="260" />
              <mxPoint x="280" y="260" />
            </Array>
          </mxGeometry>
        </mxCell>
        <mxCell id="vZRIL2ey5NKBTlXbd4B_-11" value="SYR.CSE681.Client.P2P" style="shape=folder;fontStyle=1;spacingTop=10;tabWidth=40;tabHeight=14;tabPosition=left;html=1;" vertex="1" parent="1">
          <mxGeometry x="520" y="230" width="200" height="50" as="geometry" />
        </mxCell>
        <mxCell id="vZRIL2ey5NKBTlXbd4B_-12" value="SYR.CSE681.Client.Comms" style="shape=folder;fontStyle=1;spacingTop=10;tabWidth=40;tabHeight=14;tabPosition=left;html=1;" vertex="1" parent="1">
          <mxGeometry x="520" y="390" width="200" height="50" as="geometry" />
        </mxCell>
        <mxCell id="vZRIL2ey5NKBTlXbd4B_-13" value="" style="endArrow=none;html=1;rounded=0;edgeStyle=orthogonalEdgeStyle;strokeWidth=1;curved=1;exitX=0;exitY=0;exitDx=120;exitDy=14;exitPerimeter=0;entryX=0.5;entryY=1;entryDx=0;entryDy=0;entryPerimeter=0;" edge="1" parent="1" source="vZRIL2ey5NKBTlXbd4B_-11" target="vZRIL2ey5NKBTlXbd4B_-1">
          <mxGeometry width="50" height="50" relative="1" as="geometry">
            <mxPoint x="410" y="254" as="sourcePoint" />
            <mxPoint x="570.0285714285715" y="130" as="targetPoint" />
            <Array as="points">
              <mxPoint x="640" y="180" />
              <mxPoint x="620" y="180" />
            </Array>
          </mxGeometry>
        </mxCell>
        <mxCell id="vZRIL2ey5NKBTlXbd4B_-14" value="" style="endArrow=none;html=1;rounded=0;edgeStyle=orthogonalEdgeStyle;strokeWidth=1;curved=1;exitX=0;exitY=0;exitDx=120;exitDy=14;exitPerimeter=0;entryX=0.5;entryY=1;entryDx=0;entryDy=0;entryPerimeter=0;" edge="1" parent="1" source="vZRIL2ey5NKBTlXbd4B_-12" target="vZRIL2ey5NKBTlXbd4B_-2">
          <mxGeometry width="50" height="50" relative="1" as="geometry">
            <mxPoint x="420" y="264" as="sourcePoint" />
            <mxPoint x="580.0285714285715" y="140" as="targetPoint" />
            <Array as="points">
              <mxPoint x="640" y="340" />
              <mxPoint x="140" y="340" />
            </Array>
          </mxGeometry>
        </mxCell>
        <mxCell id="vZRIL2ey5NKBTlXbd4B_-15" value="" style="endArrow=none;html=1;rounded=0;edgeStyle=orthogonalEdgeStyle;strokeWidth=1;curved=1;exitX=0;exitY=0;exitDx=120;exitDy=14;exitPerimeter=0;entryX=0.5;entryY=1;entryDx=0;entryDy=0;entryPerimeter=0;" edge="1" parent="1" source="vZRIL2ey5NKBTlXbd4B_-12" target="vZRIL2ey5NKBTlXbd4B_-3">
          <mxGeometry width="50" height="50" relative="1" as="geometry">
            <mxPoint x="610" y="414" as="sourcePoint" />
            <mxPoint x="200" y="290" as="targetPoint" />
            <Array as="points">
              <mxPoint x="640" y="340" />
              <mxPoint x="380" y="340" />
            </Array>
          </mxGeometry>
        </mxCell>
        <mxCell id="vZRIL2ey5NKBTlXbd4B_-16" value="" style="endArrow=none;html=1;rounded=0;edgeStyle=orthogonalEdgeStyle;strokeWidth=1;curved=1;exitX=0;exitY=0;exitDx=120;exitDy=14;exitPerimeter=0;entryX=0.5;entryY=1;entryDx=0;entryDy=0;entryPerimeter=0;" edge="1" parent="1" source="vZRIL2ey5NKBTlXbd4B_-12" target="vZRIL2ey5NKBTlXbd4B_-11">
          <mxGeometry width="50" height="50" relative="1" as="geometry">
            <mxPoint x="610" y="414" as="sourcePoint" />
            <mxPoint x="440" y="290" as="targetPoint" />
            <Array as="points">
              <mxPoint x="640" y="340" />
              <mxPoint x="620" y="340" />
            </Array>
          </mxGeometry>
        </mxCell>
        <mxCell id="vZRIL2ey5NKBTlXbd4B_-17" value="" style="endArrow=none;html=1;rounded=0;edgeStyle=orthogonalEdgeStyle;strokeWidth=1;curved=1;exitX=0;exitY=0;exitDx=120;exitDy=14;exitPerimeter=0;entryX=0.5;entryY=1;entryDx=0;entryDy=0;entryPerimeter=0;" edge="1" parent="1" source="vZRIL2ey5NKBTlXbd4B_-12" target="vZRIL2ey5NKBTlXbd4B_-4">
          <mxGeometry width="50" height="50" relative="1" as="geometry">
            <mxPoint x="620" y="424" as="sourcePoint" />
            <mxPoint x="450" y="300" as="targetPoint" />
            <Array as="points">
              <mxPoint x="640" y="340" />
              <mxPoint x="860" y="340" />
            </Array>
          </mxGeometry>
        </mxCell>
        <mxCell id="vZRIL2ey5NKBTlXbd4B_-18" value="" style="endArrow=none;html=1;rounded=0;edgeStyle=orthogonalEdgeStyle;strokeWidth=1;curved=1;exitX=0;exitY=0;exitDx=120;exitDy=14;exitPerimeter=0;entryX=0.5;entryY=1;entryDx=0;entryDy=0;entryPerimeter=0;" edge="1" parent="1" source="vZRIL2ey5NKBTlXbd4B_-12" target="vZRIL2ey5NKBTlXbd4B_-5">
          <mxGeometry width="50" height="50" relative="1" as="geometry">
            <mxPoint x="630" y="434" as="sourcePoint" />
            <mxPoint x="460" y="310" as="targetPoint" />
            <Array as="points">
              <mxPoint x="640" y="370" />
              <mxPoint x="1100" y="370" />
            </Array>
          </mxGeometry>
        </mxCell>
        <mxCell id="vZRIL2ey5NKBTlXbd4B_-19" value="SYR.CSE681.Server.GUI" style="shape=folder;fontStyle=1;spacingTop=10;tabWidth=40;tabHeight=14;tabPosition=left;html=1;" vertex="1" parent="1">
          <mxGeometry x="520" y="550" width="200" height="50" as="geometry" />
        </mxCell>
        <mxCell id="vZRIL2ey5NKBTlXbd4B_-20" value="SYR.CSE681.Server.UserAccount" style="shape=folder;fontStyle=1;spacingTop=10;tabWidth=40;tabHeight=14;tabPosition=left;html=1;" vertex="1" parent="1">
          <mxGeometry x="40" y="710" width="200" height="50" as="geometry" />
        </mxCell>
        <mxCell id="vZRIL2ey5NKBTlXbd4B_-21" value="SYR.CSE681.Server.Login" style="shape=folder;fontStyle=1;spacingTop=10;tabWidth=40;tabHeight=14;tabPosition=left;html=1;" vertex="1" parent="1">
          <mxGeometry x="280" y="710" width="200" height="50" as="geometry" />
        </mxCell>
        <mxCell id="vZRIL2ey5NKBTlXbd4B_-22" value="SYR.CSE681.Server.Heartbeat" style="shape=folder;fontStyle=1;spacingTop=10;tabWidth=40;tabHeight=14;tabPosition=left;html=1;" vertex="1" parent="1">
          <mxGeometry x="760" y="710" width="200" height="50" as="geometry" />
        </mxCell>
        <mxCell id="vZRIL2ey5NKBTlXbd4B_-24" value="" style="endArrow=none;html=1;rounded=0;edgeStyle=orthogonalEdgeStyle;strokeWidth=1;curved=1;exitX=0;exitY=0;exitDx=120;exitDy=14;exitPerimeter=0;entryX=0.5;entryY=1;entryDx=0;entryDy=0;entryPerimeter=0;" edge="1" parent="1" source="vZRIL2ey5NKBTlXbd4B_-20" target="vZRIL2ey5NKBTlXbd4B_-19">
          <mxGeometry width="50" height="50" relative="1" as="geometry">
            <mxPoint x="400" y="710" as="sourcePoint" />
            <mxPoint x="530" y="620" as="targetPoint" />
            <Array as="points">
              <mxPoint x="160" y="660" />
              <mxPoint x="620" y="660" />
            </Array>
          </mxGeometry>
        </mxCell>
        <mxCell id="vZRIL2ey5NKBTlXbd4B_-25" value="" style="endArrow=none;html=1;rounded=0;edgeStyle=orthogonalEdgeStyle;strokeWidth=1;curved=1;exitX=0;exitY=0;exitDx=120;exitDy=14;exitPerimeter=0;entryX=0.5;entryY=1;entryDx=0;entryDy=0;entryPerimeter=0;" edge="1" parent="1" source="vZRIL2ey5NKBTlXbd4B_-21" target="vZRIL2ey5NKBTlXbd4B_-19">
          <mxGeometry width="50" height="50" relative="1" as="geometry">
            <mxPoint x="150" y="720" as="sourcePoint" />
            <mxPoint x="570" y="610" as="targetPoint" />
            <Array as="points">
              <mxPoint x="400" y="660" />
              <mxPoint x="620" y="660" />
            </Array>
          </mxGeometry>
        </mxCell>
        <mxCell id="vZRIL2ey5NKBTlXbd4B_-27" value="" style="endArrow=none;html=1;rounded=0;edgeStyle=orthogonalEdgeStyle;strokeWidth=1;curved=1;exitX=0;exitY=0;exitDx=120;exitDy=14;exitPerimeter=0;entryX=0.5;entryY=1;entryDx=0;entryDy=0;entryPerimeter=0;" edge="1" parent="1" source="vZRIL2ey5NKBTlXbd4B_-22" target="vZRIL2ey5NKBTlXbd4B_-19">
          <mxGeometry width="50" height="50" relative="1" as="geometry">
            <mxPoint x="730" y="720" as="sourcePoint" />
            <mxPoint x="570" y="610" as="targetPoint" />
            <Array as="points">
              <mxPoint x="880" y="660" />
              <mxPoint x="620" y="660" />
            </Array>
          </mxGeometry>
        </mxCell>
        <mxCell id="vZRIL2ey5NKBTlXbd4B_-28" value="" style="endArrow=none;html=1;rounded=0;edgeStyle=orthogonalEdgeStyle;strokeWidth=1;curved=1;" edge="1" parent="1" source="vZRIL2ey5NKBTlXbd4B_-21" target="vZRIL2ey5NKBTlXbd4B_-20">
          <mxGeometry width="50" height="50" relative="1" as="geometry">
            <mxPoint x="740" y="730" as="sourcePoint" />
            <mxPoint x="580" y="620" as="targetPoint" />
            <Array as="points">
              <mxPoint x="280" y="740" />
              <mxPoint x="280" y="740" />
            </Array>
          </mxGeometry>
        </mxCell>
        <mxCell id="vZRIL2ey5NKBTlXbd4B_-29" value="SYR.CSE681.Server.ListUsers" style="shape=folder;fontStyle=1;spacingTop=10;tabWidth=40;tabHeight=14;tabPosition=left;html=1;" vertex="1" parent="1">
          <mxGeometry x="520" y="710" width="200" height="50" as="geometry" />
        </mxCell>
        <mxCell id="vZRIL2ey5NKBTlXbd4B_-30" value="SYR.CSE681.Server.Comms" style="shape=folder;fontStyle=1;spacingTop=10;tabWidth=40;tabHeight=14;tabPosition=left;html=1;" vertex="1" parent="1">
          <mxGeometry x="520" y="870" width="200" height="50" as="geometry" />
        </mxCell>
        <mxCell id="vZRIL2ey5NKBTlXbd4B_-31" value="" style="endArrow=none;html=1;rounded=0;edgeStyle=orthogonalEdgeStyle;strokeWidth=1;curved=1;exitX=0;exitY=0;exitDx=120;exitDy=14;exitPerimeter=0;entryX=0.5;entryY=1;entryDx=0;entryDy=0;entryPerimeter=0;" edge="1" parent="1" source="vZRIL2ey5NKBTlXbd4B_-29" target="vZRIL2ey5NKBTlXbd4B_-19">
          <mxGeometry width="50" height="50" relative="1" as="geometry">
            <mxPoint x="410" y="734" as="sourcePoint" />
            <mxPoint x="570.0285714285715" y="610" as="targetPoint" />
            <Array as="points">
              <mxPoint x="640" y="660" />
              <mxPoint x="620" y="660" />
            </Array>
          </mxGeometry>
        </mxCell>
        <mxCell id="vZRIL2ey5NKBTlXbd4B_-32" value="" style="endArrow=none;html=1;rounded=0;edgeStyle=orthogonalEdgeStyle;strokeWidth=1;curved=1;exitX=0;exitY=0;exitDx=120;exitDy=14;exitPerimeter=0;entryX=0.5;entryY=1;entryDx=0;entryDy=0;entryPerimeter=0;" edge="1" parent="1" source="vZRIL2ey5NKBTlXbd4B_-30" target="vZRIL2ey5NKBTlXbd4B_-20">
          <mxGeometry width="50" height="50" relative="1" as="geometry">
            <mxPoint x="420" y="744" as="sourcePoint" />
            <mxPoint x="580.0285714285715" y="620" as="targetPoint" />
            <Array as="points">
              <mxPoint x="640" y="820" />
              <mxPoint x="140" y="820" />
            </Array>
          </mxGeometry>
        </mxCell>
        <mxCell id="vZRIL2ey5NKBTlXbd4B_-33" value="" style="endArrow=none;html=1;rounded=0;edgeStyle=orthogonalEdgeStyle;strokeWidth=1;curved=1;exitX=0;exitY=0;exitDx=120;exitDy=14;exitPerimeter=0;entryX=0.5;entryY=1;entryDx=0;entryDy=0;entryPerimeter=0;" edge="1" parent="1" source="vZRIL2ey5NKBTlXbd4B_-30" target="vZRIL2ey5NKBTlXbd4B_-21">
          <mxGeometry width="50" height="50" relative="1" as="geometry">
            <mxPoint x="610" y="894" as="sourcePoint" />
            <mxPoint x="200" y="770" as="targetPoint" />
            <Array as="points">
              <mxPoint x="640" y="820" />
              <mxPoint x="380" y="820" />
            </Array>
          </mxGeometry>
        </mxCell>
        <mxCell id="vZRIL2ey5NKBTlXbd4B_-34" value="" style="endArrow=none;html=1;rounded=0;edgeStyle=orthogonalEdgeStyle;strokeWidth=1;curved=1;exitX=0;exitY=0;exitDx=120;exitDy=14;exitPerimeter=0;entryX=0.5;entryY=1;entryDx=0;entryDy=0;entryPerimeter=0;" edge="1" parent="1" source="vZRIL2ey5NKBTlXbd4B_-30" target="vZRIL2ey5NKBTlXbd4B_-29">
          <mxGeometry width="50" height="50" relative="1" as="geometry">
            <mxPoint x="610" y="894" as="sourcePoint" />
            <mxPoint x="440" y="770" as="targetPoint" />
            <Array as="points">
              <mxPoint x="640" y="820" />
              <mxPoint x="620" y="820" />
            </Array>
          </mxGeometry>
        </mxCell>
        <mxCell id="vZRIL2ey5NKBTlXbd4B_-35" value="" style="endArrow=none;html=1;rounded=0;edgeStyle=orthogonalEdgeStyle;strokeWidth=1;curved=1;exitX=0;exitY=0;exitDx=120;exitDy=14;exitPerimeter=0;entryX=0.5;entryY=1;entryDx=0;entryDy=0;entryPerimeter=0;" edge="1" parent="1" source="vZRIL2ey5NKBTlXbd4B_-30" target="vZRIL2ey5NKBTlXbd4B_-22">
          <mxGeometry width="50" height="50" relative="1" as="geometry">
            <mxPoint x="620" y="904" as="sourcePoint" />
            <mxPoint x="450" y="780" as="targetPoint" />
            <Array as="points">
              <mxPoint x="640" y="820" />
              <mxPoint x="860" y="820" />
            </Array>
          </mxGeometry>
        </mxCell>
      </root>
    </mxGraphModel>
  </diagram>
</mxfile>
